<?xml version="1.0" encoding="UTF-8" standalone="no"?><!DOCTYPE svg PUBLIC "-//W3C//DTD SVG 1.1//EN" "http://www.w3.org/Graphics/SVG/1.1/DTD/svg11.dtd"><svg width="100%" height="100%" viewBox="0 0 500 500" version="1.1" xmlns="http://www.w3.org/2000/svg" xmlns:xlink="http://www.w3.org/1999/xlink" xml:space="preserve" xmlns:serif="http://www.serif.com/" style="fill-rule:evenodd;clip-rule:evenodd;stroke-linejoin:round;stroke-miterlimit:2;"><path d="M500,250c-0,137.979 -112.021,250 -250,250c-137.979,-0 -250,-112.021 -250,-250c-0,-137.979 112.021,-250 250,-250c137.979,0 250,112.021 250,250Z" style="fill:#67acb0;"/><path d="M74.846,306.209c-0.906,-2.831 -1.749,-5.698 -2.526,-8.6c-26.277,-98.064 32.006,-199.013 130.071,-225.289c98.064,-26.277 199.013,32.006 225.289,130.071c26.277,98.064 -32.006,199.013 -130.071,225.289c-39.854,10.679 -80.185,7.392 -115.786,-6.857c27.03,-28.564 43.615,-67.113 43.615,-109.504c0,-2.822 -2.287,-5.11 -5.109,-5.11l-29.439,0c-2.822,0 -5.11,2.288 -5.11,5.11c0,35.753 -15.705,67.867 -40.587,89.813c-6.325,-4.381 -12.384,-9.16 -18.132,-14.313c21.999,-17.805 36.075,-45.022 36.075,-75.5c-0,-2.822 -2.288,-5.11 -5.11,-5.11l-83.18,0Zm165.513,-105.567c-2.356,-1.234 -5.265,-0.454 -6.688,1.792l-26.087,41.184c-0.99,1.563 -1.057,3.541 -0.175,5.168c0.881,1.628 2.575,2.651 4.426,2.675c25.859,0.336 50.16,-5.148 72.115,-19.382c1.524,-0.988 2.409,-2.711 2.325,-4.525c-0.084,-1.813 -1.125,-3.446 -2.733,-4.289l-43.183,-22.623Zm-58.431,13.576c-5.217,-19.469 -25.259,-31.04 -44.728,-25.823l-0.521,0.139c-19.469,5.217 -31.04,25.259 -25.824,44.727l0.204,0.761c5.217,19.468 25.258,31.039 44.727,25.823l0.522,-0.14c19.469,-5.217 31.04,-25.258 25.823,-44.727l-0.203,-0.76Zm176.909,-47.403c-5.217,-19.469 -25.258,-31.04 -44.727,-25.823l-0.522,0.14c-19.469,5.216 -31.04,25.258 -25.823,44.727l0.203,0.76c5.217,19.469 25.259,31.04 44.728,25.823l0.521,-0.14c19.469,-5.216 31.04,-25.258 25.824,-44.727l-0.204,-0.76Z" style="fill:#fff;"/></svg>